<?xml version="1.0" encoding="utf-8"?>
<!-- Generator: Adobe Illustrator 23.0.1, SVG Export Plug-In . SVG Version: 6.00 Build 0)  -->
<svg version="1.1" id="Calque_1" xmlns="http://www.w3.org/2000/svg" xmlns:xlink="http://www.w3.org/1999/xlink" x="0px" y="0px"
	 viewBox="0 0 72.4 63.6" style="enable-background:new 0 0 72.4 63.6;" xml:space="preserve">
<path d="M50.9,63.6h0.4c11.6,0,21.1-9.5,21.1-21.1c0-9.7-6.6-17.9-15.5-20.3c3.7-2,6.2-5.9,6.2-10.4C63.1,5.3,57.8,0,51.3,0h-25
	c-5,0-9.1,3.2-10.8,7.5l-12,20.8c-5.3,6.5-4.6,15.4,2.2,20.4c0.8,2.9,2.2,5.5,4.2,7.7l2.6,2.5c3.7,2.9,8.3,4.7,13,4.7h0.1
	c5.2,0,9.6-1.6,13-4.1C42.2,62.1,46.5,63.5,50.9,63.6z"/>
</svg>
