<svg version="1" xmlns="http://www.w3.org/2000/svg" width="1365.333" height="1365.333" viewBox="0 0 1024.000000 1024.000000"><path d="M537.5 57.1c-65.1 5.5-122.8 52.1-143.4 115.9-17.5 54.3-5.9 109.9 32.8 156.2 16.2 19.2 42.5 37.6 76.1 52.9 17.1 7.8 31.1 12.6 61 20.9 30.5 8.6 63.3 19.2 82.5 26.7 64.1 25.2 115.2 71.2 143.9 129.6 8.7 17.7 13.5 30.1 17.6 46.3 21.2 82.3 4.7 163.1-46.6 227.4-8.6 10.8-29.3 31.5-40.4 40.4-21.6 17.3-54.2 35.8-79.3 45.1-90.2 33.2-185.4 19.1-262.1-38.8-10.6-8-14.4-9-21.4-5.5-8.1 4-11.8 14.6-7.5 22 3.7 6.2 32.7 25.9 55.8 37.9 56.8 29.5 117 39.3 183.5 29.9 91.5-12.9 169.2-63.3 215.4-139.9 37.1-61.3 51.2-134.1 39.5-203.4-4.5-27-12.3-50.7-24.9-76.2-23.1-46.7-57-84.6-102.7-114.9-32.5-21.5-59.4-32.4-127.8-52-49.1-14-67-20.3-88.3-31-31.6-15.8-56.4-39.2-69.7-65.6-16.4-32.6-19.4-68.5-8.3-99.8 16.6-47.2 55.7-81.1 104.5-90.9 12.2-2.4 38.5-2.4 50.8.1 29.7 5.9 54.8 18.9 74.7 38.7 16.7 16.7 29.7 40.2 34.8 63.2.7 3.1 1.1 5.8.9 6-.2.1-6.2 2.2-13.4 4.6-25.7 8.7-41 17.5-55.5 32.1-18.1 18-26.4 38.2-23.9 58.2 1.9 15.4 13.8 32.6 26.6 38.5 7.6 3.6 22.5 4.4 32.4 1.9 27.4-7.1 51.3-31.8 61.3-63.6 3.6-11.1 6.6-29.3 6.6-39 0-4.4.4-8.1.9-8.4.5-.3 7.1-1.7 14.7-3.2 7.7-1.4 15.5-3.3 17.4-4.2 5-2.5 8-7.4 8-13.4 0-5.8-1.7-9.6-6-13.2-4-3.3-10-3.4-25.9-.5-6.2 1.1-11.4 1.9-11.6 1.7-.2-.2-1.5-4.8-2.9-10.2-9.9-37.2-35.8-72.5-69.1-94.2-32.4-21-73.4-31.5-111-28.3zm152.9 184.4c-2.6 17.7-10 34.8-20.1 46.7-15.7 18.3-34.1 22.3-41.1 8.7-3.3-6.4-2.8-17.1 1.2-25.3 5.2-10.6 18.1-21.8 35.2-30.5 10.6-5.4 24.7-11.1 25.6-10.3.3.4 0 5.2-.8 10.7z"/><path d="M432.4 420.5c-19.5 3-35.2 8-54 17.1C313.7 469 267.7 532.1 252 611c-4.6 23.3-5.5 33.2-5.5 63.2v27.7l-2.5-3.1c-17.6-22-28.3-43.9-34.3-70.5-1.8-8.5-2.2-12.8-2.2-31.8 0-19.4.3-23.3 2.4-32.9 5.8-27.5 17-51.9 34.1-75.2 8.4-11.3 9-12.4 9-16.9 0-5.2-2.7-10.3-6.9-13.1-5.2-3.4-9.3-4-14.7-1.9-3.8 1.4-5.7 3.2-11.4 10.9-43.9 58.4-56.4 128.5-34.4 191.8 11.7 33.7 33.3 64.1 62 87.4 9.1 7.4 9.1 7.4 11.3 14.9 9.6 32.2 28.8 68.5 49.2 93 9.3 11.1 12.9 14.2 17.5 15.1 11 2.1 21.7-9.1 18.6-19.4-.6-2-4.6-7.8-8.7-12.7-13.4-15.9-32.1-45.7-37.4-59.7l-.9-2.4 11.3 3.8c58.5 19.5 128 11.5 185.5-21.4 55.8-32 94.6-81.1 109.5-138.5 3.7-14.3 5.5-29.7 5.5-48 0-27.3-4.2-46.7-15-68.8-20.1-41.5-58.1-70.4-105.5-80.5-13.1-2.8-42.7-3.6-56.1-1.5zm48.3 32.4c17.3 3.4 30.2 8.6 44.2 17.8 15 9.9 30 27.1 38.4 43.9 4.2 8.3 9.5 24.8 11.9 36.7 3 14.9 3.2 39.1.4 51.7-4.1 18.8-13.6 40.3-26.1 59-37.7 56.4-98.8 91.6-166 95.6-28.2 1.7-63.3-5.7-89.6-18.9-11.9-6-10.8-4.1-14-25.2-2.9-18.4-3.1-50.8-.5-70 8-59.4 28.2-105.2 61.6-139.9 26.9-27.9 57.3-44.7 92.5-51 12.1-2.1 35.3-2 47.2.3z"/></svg>